<svg xmlns="http://www.w3.org/2000/svg" width="12" height="12" viewBox="0 0 12 12" fill="none">
  <path d="M3.617 1.50201C2.291 1.50201 1 2.41651 1 4.09051C1 5.95301 3.1725 7.95401 5.6515 10.3605C5.7485 10.455 5.8745 10.502 6 10.502C6.1255 10.502 6.2515 10.455 6.3485 10.3605C8.837 7.94501 11 5.95351 11 4.09051C11 2.41401 9.71 1.50651 8.3855 1.50651C7.4675 1.50651 6.5625 1.93951 6 2.78351C5.435 1.93551 4.5325 1.50201 3.617 1.50201ZM3.617 2.25201C4.612 2.25251 5.218 2.92851 5.6945 3.60201C5.7645 3.70101 5.8785 3.76001 6 3.76051C6.1215 3.76051 6.2355 3.70201 6.306 3.60351C6.7835 2.93401 7.401 2.25651 8.3855 2.25651C9.2835 2.25651 10.25 2.83051 10.25 4.09051C10.25 5.42601 8.8095 6.92701 6 9.65401C3.273 7.01151 1.75 5.45951 1.75 4.09051C1.75 3.52801 1.9445 3.05601 2.312 2.72701C2.6485 2.42501 3.1245 2.25201 3.617 2.25201Z" fill="black"/>
</svg>