<svg xmlns="http://www.w3.org/2000/svg" width="12" height="12" viewBox="0 0 12 12" fill="none">
<g clip-path="url(#clip0_9_190)">
<path d="M9.698 10.354C9.293 10.323 9.3315 9.948 9.7135 9.8775C10.348 9.7605 10.627 9.4205 10.627 9.106C10.627 8.8415 10.429 8.595 10.078 8.5155C9.6595 8.421 9.746 8.137 10.0935 8.1095C10.6595 8.0645 10.9375 7.7275 10.9375 7.4045C10.9375 7.122 10.725 6.8505 10.307 6.7945C9.8785 6.737 10.018 6.4275 10.3225 6.3335C10.583 6.2535 10.9995 6.0835 10.9995 5.5785C10.9995 5.2425 10.7495 4.7975 9.864 4.8335C9.25 4.8585 8.0305 4.7345 7.3745 4.391C7.828 2.5625 7.719 0 6.531 0C5.734 0 5.583 0.9035 5.3435 1.7345C4.4845 4.719 2.7655 5.2655 1 5.536V10.5C4.344 10.5 5.25 12 7.7525 12C9.352 12 10.1785 11.1325 10.1785 10.667C10.178 10.5 10.042 10.381 9.698 10.354Z" fill="white"/>
</g>
<defs>
<clipPath id="clip0_9_190">
<rect width="12" height="12" fill="white"/>
</clipPath>
</defs>
</svg>