<svg xmlns="http://www.w3.org/2000/svg" width="12" height="12" viewBox="0 0 12 12" fill="none">
<g clip-path="url(#clip0_9_192)">
<path d="M2.302 1.646C2.707 1.677 2.6685 2.052 2.2865 2.1225C1.652 2.2395 1.373 2.5795 1.373 2.894C1.373 3.1585 1.571 3.405 1.922 3.4845C2.3405 3.579 2.254 3.863 1.9065 3.8905C1.3405 3.9355 1.0625 4.2725 1.0625 4.5955C1.0625 4.878 1.275 5.1495 1.693 5.2055C2.1215 5.263 1.982 5.5725 1.6775 5.6665C1.417 5.7465 1.0005 5.9165 1.0005 6.4215C1.0005 6.7575 1.2505 7.2025 2.136 7.1665C2.75 7.1415 3.9695 7.2655 4.6255 7.609C4.172 9.4375 4.281 12 5.469 12C6.266 12 6.417 11.0965 6.6565 10.2655C7.5155 7.281 9.2345 6.7345 11 6.464L11 1.5C7.656 1.5 6.75 0 4.2475 0C2.648 0 1.8215 0.8675 1.8215 1.333C1.822 1.5 1.958 1.619 2.302 1.646Z" fill="#999999"/>
</g>
<defs>
<clipPath id="clip0_9_192">
<rect width="12" height="12" fill="white" transform="matrix(-1 0 0 -1 12 12)"/>
</clipPath>
</defs>
</svg>