<svg xmlns="http://www.w3.org/2000/svg" width="12" height="12" viewBox="0 0 12 12" fill="none">
<path d="M5.661 1.4615C5.724 1.332 5.856 1.25 6 1.25C6.1445 1.25 6.276 1.332 6.339 1.4615C6.826 2.4605 7.664 4.1815 7.664 4.1815C7.664 4.1815 9.5695 4.4435 10.675 4.596C10.8765 4.6235 11 4.794 11 4.9695C11 5.0645 10.964 5.161 10.8845 5.2375C10.0795 6.0065 8.6935 7.333 8.6935 7.333C8.6935 7.333 9.032 9.2165 9.228 10.309C9.2695 10.54 9.0905 10.75 8.857 10.75C8.796 10.75 8.735 10.7355 8.6795 10.7055C7.6955 10.1815 6 9.28 6 9.28C6 9.28 4.3045 10.1815 3.3205 10.7055C3.265 10.7355 3.2035 10.75 3.1425 10.75C2.91 10.75 2.73 10.5395 2.772 10.309C2.9685 9.2165 3.307 7.333 3.307 7.333C3.307 7.333 1.9205 6.0065 1.116 5.2375C1.036 5.161 1 5.0645 1 4.97C1 4.794 1.1245 4.623 1.3255 4.596C2.431 4.4435 4.336 4.1815 4.336 4.1815C4.336 4.1815 5.1745 2.4605 5.661 1.4615ZM6 2.478L4.8195 4.874L2.1965 5.2335L4.1205 7.055L3.6465 9.6825L6 8.43L8.3535 9.6825L7.878 7.0645L9.8035 5.2335L7.1465 4.8555L6 2.478Z" fill="black"/>
</svg>