<svg xmlns="http://www.w3.org/2000/svg" width="14" height="14" viewBox="0 0 14 14" fill="none">
  <g clip-path="url(#clip0_9_152)">
    <path d="M9.93572 4.06365C10.2764 4.40373 10.2764 4.95556 9.93572 5.29565L5.2953 9.93665C4.95522 10.2767 4.40339 10.2767 4.0633 9.93665C3.72322 9.59656 3.72322 9.04473 4.0633 8.70465L8.7043 4.06365C9.0438 3.72356 9.59564 3.72356 9.93572 4.06365ZM4.60522 11.8721C3.92214 12.5552 2.81089 12.5552 2.12722 11.8721C1.44414 11.1891 1.44414 10.0772 2.12722 9.39415L5.41664 6.10881C4.31297 5.84106 3.10022 6.13798 2.23805 7.00015L0.985637 8.25256C-0.329197 9.5674 -0.329197 11.6995 0.985637 13.0143C2.30047 14.3291 4.43255 14.3291 5.74739 13.0143L6.9998 11.7613C7.86139 10.8997 8.1583 9.68698 7.89055 8.58331L4.60522 11.8721ZM8.25164 0.985981L6.9998 2.23898C6.13764 3.10115 5.83897 4.31156 6.1073 5.41523L9.3938 2.12815C10.0775 1.44506 11.1887 1.44506 11.8718 2.12815C12.5555 2.81123 12.5555 3.92306 11.8718 4.60615L8.58472 7.89323C9.68897 8.16098 10.8994 7.86231 11.761 7.00073L13.0128 5.74831C14.3276 4.43348 14.3276 2.30198 13.0128 0.986564C11.6986 -0.328269 9.56647 -0.328269 8.25164 0.985981Z" fill="white"/>
  </g>
  <defs>
    <clipPath id="clip0_9_152">
      <rect width="14" height="14" fill="white"/>
    </clipPath>
  </defs>
</svg>