<svg xmlns="http://www.w3.org/2000/svg" width="20" height="20" viewBox="0 0 20 20" fill="none">
  <g clip-path="url(#clip0_9_155)">
    <path d="M10 1.66667C14.595 1.66667 18.3333 5.405 18.3333 10C18.3333 14.595 14.595 18.3333 10 18.3333C5.405 18.3333 1.66667 14.595 1.66667 10C1.66667 5.405 5.405 1.66667 10 1.66667ZM10 0C4.4775 0 0 4.4775 0 10C0 15.5225 4.4775 20 10 20C15.5225 20 20 15.5225 20 10C20 4.4775 15.5225 0 10 0ZM14.59 11.6175C13.3292 12.6133 11.945 13.2267 10.0008 13.2267C8.055 13.2267 6.67083 12.6133 5.41 11.6175L5 12.0283C5.93917 13.4617 7.66667 15 10.0008 15C12.3342 15 14.0608 13.4617 15 12.0283L14.59 11.6175ZM7.08333 6.66667C6.39333 6.66667 5.83333 7.22583 5.83333 7.91667C5.83333 8.6075 6.39333 9.16667 7.08333 9.16667C7.77333 9.16667 8.33333 8.6075 8.33333 7.91667C8.33333 7.22583 7.77333 6.66667 7.08333 6.66667ZM15 8.335L14.3708 8.75667C14.3708 8.75667 13.9517 7.96667 12.9158 7.96667C11.91 7.96667 11.4617 8.75667 11.4617 8.75667L10.8333 8.335C11.0675 7.71167 11.8375 6.66667 12.9158 6.66667C13.995 6.66667 14.7642 7.71167 15 8.335Z" fill="white"/>
  </g>
  <defs>
    <clipPath id="clip0_9_155">
      <rect width="20" height="20" fill="white"/>
    </clipPath>
  </defs>
</svg>